<svg xmlns="http://www.w3.org/2000/svg" viewBox="0 0 19 21" width="19" height="21">
	<style>
		tspan { white-space:pre }
		.shp0 { fill: #231f1f } 
	</style>
	<path id="arrow_repeat" class="shp0" d="M16.69 12.1C16.69 15.43 13.6 18.76 9.8 18.76C6.01 18.76 2.92 15.78 2.92 12.1C2.92 8.43 6.01 5.44 9.8 5.44L9.8 7.66L15.54 4.33L9.8 1L9.8 3.22C4.73 3.22 0.62 7.2 0.62 12.1C0.62 17.01 4.73 20.98 9.8 20.98C14.87 20.98 18.98 17.65 18.98 12.1L16.69 12.1ZM8.66 8.77C8.66 10.38 8.66 10.36 8.66 13.21C11.84 13.21 8.2 13.21 15.54 13.21L15.54 10.99L10.95 10.99L10.95 8.77L8.66 8.77Z" />
</svg>