<svg xmlns="http://www.w3.org/2000/svg" viewBox="0 0 415 415" width="415" height="415">
	<style>
		tspan { white-space:pre }
		.shp0 { fill: #000000 } 
	</style>
	<g id="Layer">
		<path id="Layer" fill-rule="evenodd" class="shp0" d="M414.8 105.4L414.8 282.2C414.8 298.38 406.71 312.66 394.4 321.3L394.4 112.2C394.4 89.66 376.14 71.4 353.6 71.4L40.8 71.4C37.06 71.4 34 74.46 34 78.2C34 81.94 37.06 85 40.8 85L353.6 85C368.62 85 380.8 97.18 380.8 112.2L380.8 136.95L315.86 136.95C293.08 136.95 274.45 155.59 274.45 178.36L274.45 196.93C274.45 219.7 293.08 238.34 315.86 238.34L380.8 238.34L380.8 329.8C380.8 348.57 365.57 363.8 346.8 363.8L34 363.8C15.23 363.8 0 348.57 0 329.8L0 98.6C0 72.31 21.31 51 47.6 51L360.4 51C390.44 51 414.8 75.36 414.8 105.4ZM380.8 150.55L380.8 224.74L315.86 224.74C300.56 224.74 288.05 212.23 288.05 196.86L288.05 178.36C288.05 162.99 300.56 150.55 315.86 150.55L380.8 150.55ZM348.36 187.61C348.36 179.93 342.11 173.74 334.42 173.74C326.74 173.74 320.55 179.93 320.55 187.61C320.55 195.29 326.74 201.55 334.42 201.55C342.11 201.55 348.36 195.3 348.36 187.61Z" />
	</g>
	<g id="Layer">
	</g>
	<g id="Layer">
	</g>
	<g id="Layer">
	</g>
	<g id="Layer">
	</g>
	<g id="Layer">
	</g>
	<g id="Layer">
	</g>
	<g id="Layer">
	</g>
	<g id="Layer">
	</g>
	<g id="Layer">
	</g>
	<g id="Layer">
	</g>
	<g id="Layer">
	</g>
	<g id="Layer">
	</g>
	<g id="Layer">
	</g>
	<g id="Layer">
	</g>
	<g id="Layer">
	</g>
</svg>